<mxfile host="app.diagrams.net" modified="2021-04-06T13:41:48.401Z" agent="5.0 (Windows NT 10.0; Win64; x64) AppleWebKit/537.36 (KHTML, like Gecko) Chrome/89.0.4389.82 Safari/537.36 OPR/75.0.3969.93" etag="S8MxqlBVHNwuEFVqvy0s" version="14.5.7" type="github">
  <diagram id="C5RBs43oDa-KdzZeNtuy" name="Page-1">
    <mxGraphModel dx="1909" dy="1143" grid="1" gridSize="10" guides="1" tooltips="1" connect="1" arrows="1" fold="1" page="1" pageScale="1" pageWidth="1169" pageHeight="827" math="0" shadow="0">
      <root>
        <mxCell id="WIyWlLk6GJQsqaUBKTNV-0" />
        <mxCell id="WIyWlLk6GJQsqaUBKTNV-1" parent="WIyWlLk6GJQsqaUBKTNV-0" />
        <mxCell id="tL8S8vgxzw9MluHzjDjj-120" value="" style="rounded=0;whiteSpace=wrap;html=1;" parent="WIyWlLk6GJQsqaUBKTNV-1" vertex="1">
          <mxGeometry x="1280" y="361" width="1200" height="480" as="geometry" />
        </mxCell>
        <mxCell id="tL8S8vgxzw9MluHzjDjj-0" value="flight_trip.py" style="swimlane;fontStyle=2;align=center;verticalAlign=top;childLayout=stackLayout;horizontal=1;startSize=26;horizontalStack=0;resizeParent=1;resizeLast=0;collapsible=1;marginBottom=0;rounded=0;shadow=0;strokeWidth=1;" parent="WIyWlLk6GJQsqaUBKTNV-1" vertex="1">
          <mxGeometry x="2289" y="401" width="160" height="312" as="geometry">
            <mxRectangle x="230" y="140" width="160" height="26" as="alternateBounds" />
          </mxGeometry>
        </mxCell>
        <mxCell id="tL8S8vgxzw9MluHzjDjj-21" value="ticket_price" style="text;align=left;verticalAlign=top;spacingLeft=4;spacingRight=4;overflow=hidden;rotatable=0;points=[[0,0.5],[1,0.5]];portConstraint=eastwest;" parent="tL8S8vgxzw9MluHzjDjj-0" vertex="1">
          <mxGeometry y="26" width="160" height="26" as="geometry" />
        </mxCell>
        <mxCell id="tL8S8vgxzw9MluHzjDjj-42" value="aircraft" style="text;align=left;verticalAlign=top;spacingLeft=4;spacingRight=4;overflow=hidden;rotatable=0;points=[[0,0.5],[1,0.5]];portConstraint=eastwest;" parent="tL8S8vgxzw9MluHzjDjj-0" vertex="1">
          <mxGeometry y="52" width="160" height="26" as="geometry" />
        </mxCell>
        <mxCell id="tL8S8vgxzw9MluHzjDjj-51" value="duration" style="text;align=left;verticalAlign=top;spacingLeft=4;spacingRight=4;overflow=hidden;rotatable=0;points=[[0,0.5],[1,0.5]];portConstraint=eastwest;" parent="tL8S8vgxzw9MluHzjDjj-0" vertex="1">
          <mxGeometry y="78" width="160" height="26" as="geometry" />
        </mxCell>
        <mxCell id="tL8S8vgxzw9MluHzjDjj-43" value="destination" style="text;align=left;verticalAlign=top;spacingLeft=4;spacingRight=4;overflow=hidden;rotatable=0;points=[[0,0.5],[1,0.5]];portConstraint=eastwest;" parent="tL8S8vgxzw9MluHzjDjj-0" vertex="1">
          <mxGeometry y="104" width="160" height="26" as="geometry" />
        </mxCell>
        <mxCell id="tL8S8vgxzw9MluHzjDjj-55" value="origin" style="text;align=left;verticalAlign=top;spacingLeft=4;spacingRight=4;overflow=hidden;rotatable=0;points=[[0,0.5],[1,0.5]];portConstraint=eastwest;" parent="tL8S8vgxzw9MluHzjDjj-0" vertex="1">
          <mxGeometry y="130" width="160" height="26" as="geometry" />
        </mxCell>
        <mxCell id="tL8S8vgxzw9MluHzjDjj-56" value="passenger_list" style="text;align=left;verticalAlign=top;spacingLeft=4;spacingRight=4;overflow=hidden;rotatable=0;points=[[0,0.5],[1,0.5]];portConstraint=eastwest;" parent="tL8S8vgxzw9MluHzjDjj-0" vertex="1">
          <mxGeometry y="156" width="160" height="26" as="geometry" />
        </mxCell>
        <mxCell id="tL8S8vgxzw9MluHzjDjj-3" value="" style="line;html=1;strokeWidth=1;align=left;verticalAlign=middle;spacingTop=-1;spacingLeft=3;spacingRight=3;rotatable=0;labelPosition=right;points=[];portConstraint=eastwest;" parent="tL8S8vgxzw9MluHzjDjj-0" vertex="1">
          <mxGeometry y="182" width="160" height="8" as="geometry" />
        </mxCell>
        <mxCell id="tL8S8vgxzw9MluHzjDjj-20" value="__init__()" style="text;align=left;verticalAlign=top;spacingLeft=4;spacingRight=4;overflow=hidden;rotatable=0;points=[[0,0.5],[1,0.5]];portConstraint=eastwest;rounded=0;shadow=0;html=0;" parent="tL8S8vgxzw9MluHzjDjj-0" vertex="1">
          <mxGeometry y="190" width="160" height="26" as="geometry" />
        </mxCell>
        <mxCell id="tL8S8vgxzw9MluHzjDjj-17" value="flight_attendees_list_report" style="text;align=left;verticalAlign=top;spacingLeft=4;spacingRight=4;overflow=hidden;rotatable=0;points=[[0,0.5],[1,0.5]];portConstraint=eastwest;" parent="tL8S8vgxzw9MluHzjDjj-0" vertex="1">
          <mxGeometry y="216" width="160" height="26" as="geometry" />
        </mxCell>
        <mxCell id="tL8S8vgxzw9MluHzjDjj-18" value="add_passenger" style="text;align=left;verticalAlign=top;spacingLeft=4;spacingRight=4;overflow=hidden;rotatable=0;points=[[0,0.5],[1,0.5]];portConstraint=eastwest;" parent="tL8S8vgxzw9MluHzjDjj-0" vertex="1">
          <mxGeometry y="242" width="160" height="26" as="geometry" />
        </mxCell>
        <mxCell id="tL8S8vgxzw9MluHzjDjj-4" value="assign_plane" style="text;align=left;verticalAlign=top;spacingLeft=4;spacingRight=4;overflow=hidden;rotatable=0;points=[[0,0.5],[1,0.5]];portConstraint=eastwest;" parent="tL8S8vgxzw9MluHzjDjj-0" vertex="1">
          <mxGeometry y="268" width="160" height="44" as="geometry" />
        </mxCell>
        <mxCell id="tL8S8vgxzw9MluHzjDjj-8" value="db_wrapper.py" style="swimlane;fontStyle=2;align=center;verticalAlign=top;childLayout=stackLayout;horizontal=1;startSize=26;horizontalStack=0;resizeParent=1;resizeLast=0;collapsible=1;marginBottom=0;rounded=0;shadow=0;strokeWidth=1;" parent="WIyWlLk6GJQsqaUBKTNV-1" vertex="1">
          <mxGeometry x="540" y="485" width="230" height="295" as="geometry">
            <mxRectangle x="230" y="140" width="160" height="26" as="alternateBounds" />
          </mxGeometry>
        </mxCell>
        <mxCell id="tL8S8vgxzw9MluHzjDjj-9" value="ip" style="text;align=left;verticalAlign=top;spacingLeft=4;spacingRight=4;overflow=hidden;rotatable=0;points=[[0,0.5],[1,0.5]];portConstraint=eastwest;" parent="tL8S8vgxzw9MluHzjDjj-8" vertex="1">
          <mxGeometry y="26" width="230" height="26" as="geometry" />
        </mxCell>
        <mxCell id="tL8S8vgxzw9MluHzjDjj-10" value="uname" style="text;align=left;verticalAlign=top;spacingLeft=4;spacingRight=4;overflow=hidden;rotatable=0;points=[[0,0.5],[1,0.5]];portConstraint=eastwest;rounded=0;shadow=0;html=0;" parent="tL8S8vgxzw9MluHzjDjj-8" vertex="1">
          <mxGeometry y="52" width="230" height="26" as="geometry" />
        </mxCell>
        <mxCell id="tL8S8vgxzw9MluHzjDjj-13" value="password" style="text;align=left;verticalAlign=top;spacingLeft=4;spacingRight=4;overflow=hidden;rotatable=0;points=[[0,0.5],[1,0.5]];portConstraint=eastwest;rounded=0;shadow=0;html=0;" parent="tL8S8vgxzw9MluHzjDjj-8" vertex="1">
          <mxGeometry y="78" width="230" height="26" as="geometry" />
        </mxCell>
        <mxCell id="tL8S8vgxzw9MluHzjDjj-14" value="db_name" style="text;align=left;verticalAlign=top;spacingLeft=4;spacingRight=4;overflow=hidden;rotatable=0;points=[[0,0.5],[1,0.5]];portConstraint=eastwest;rounded=0;shadow=0;html=0;" parent="tL8S8vgxzw9MluHzjDjj-8" vertex="1">
          <mxGeometry y="104" width="230" height="26" as="geometry" />
        </mxCell>
        <mxCell id="tL8S8vgxzw9MluHzjDjj-15" value="connection" style="text;align=left;verticalAlign=top;spacingLeft=4;spacingRight=4;overflow=hidden;rotatable=0;points=[[0,0.5],[1,0.5]];portConstraint=eastwest;rounded=0;shadow=0;html=0;" parent="tL8S8vgxzw9MluHzjDjj-8" vertex="1">
          <mxGeometry y="130" width="230" height="26" as="geometry" />
        </mxCell>
        <mxCell id="tL8S8vgxzw9MluHzjDjj-16" value="cursor" style="text;align=left;verticalAlign=top;spacingLeft=4;spacingRight=4;overflow=hidden;rotatable=0;points=[[0,0.5],[1,0.5]];portConstraint=eastwest;rounded=0;shadow=0;html=0;" parent="tL8S8vgxzw9MluHzjDjj-8" vertex="1">
          <mxGeometry y="156" width="230" height="26" as="geometry" />
        </mxCell>
        <mxCell id="tL8S8vgxzw9MluHzjDjj-11" value="" style="line;html=1;strokeWidth=1;align=left;verticalAlign=middle;spacingTop=-1;spacingLeft=3;spacingRight=3;rotatable=0;labelPosition=right;points=[];portConstraint=eastwest;" parent="tL8S8vgxzw9MluHzjDjj-8" vertex="1">
          <mxGeometry y="182" width="230" height="18" as="geometry" />
        </mxCell>
        <mxCell id="tL8S8vgxzw9MluHzjDjj-12" value="__init__()" style="text;align=left;verticalAlign=top;spacingLeft=4;spacingRight=4;overflow=hidden;rotatable=0;points=[[0,0.5],[1,0.5]];portConstraint=eastwest;" parent="tL8S8vgxzw9MluHzjDjj-8" vertex="1">
          <mxGeometry y="200" width="230" height="26" as="geometry" />
        </mxCell>
        <mxCell id="32GKXj04X5cxDp7pSgDI-3" value="load_all_passengers()" style="text;align=left;verticalAlign=top;spacingLeft=4;spacingRight=4;overflow=hidden;rotatable=0;points=[[0,0.5],[1,0.5]];portConstraint=eastwest;" parent="tL8S8vgxzw9MluHzjDjj-8" vertex="1">
          <mxGeometry y="226" width="230" height="26" as="geometry" />
        </mxCell>
        <mxCell id="32GKXj04X5cxDp7pSgDI-4" value="save_all_passengers(list_passengers)" style="text;align=left;verticalAlign=top;spacingLeft=4;spacingRight=4;overflow=hidden;rotatable=0;points=[[0,0.5],[1,0.5]];portConstraint=eastwest;" parent="tL8S8vgxzw9MluHzjDjj-8" vertex="1">
          <mxGeometry y="252" width="230" height="26" as="geometry" />
        </mxCell>
        <mxCell id="tL8S8vgxzw9MluHzjDjj-22" value="" style="rounded=0;whiteSpace=wrap;html=1;" parent="WIyWlLk6GJQsqaUBKTNV-1" vertex="1">
          <mxGeometry x="-290" y="362" width="690" height="668" as="geometry" />
        </mxCell>
        <mxCell id="tL8S8vgxzw9MluHzjDjj-23" value="Database" style="text;html=1;strokeColor=none;fillColor=none;align=center;verticalAlign=middle;whiteSpace=wrap;rounded=0;" parent="WIyWlLk6GJQsqaUBKTNV-1" vertex="1">
          <mxGeometry x="20" y="370" width="50" height="20" as="geometry" />
        </mxCell>
        <mxCell id="tL8S8vgxzw9MluHzjDjj-24" style="edgeStyle=orthogonalEdgeStyle;rounded=0;orthogonalLoop=1;jettySize=auto;html=1;exitX=0;exitY=0.5;exitDx=0;exitDy=0;" parent="WIyWlLk6GJQsqaUBKTNV-1" source="tL8S8vgxzw9MluHzjDjj-14" target="tL8S8vgxzw9MluHzjDjj-22" edge="1">
          <mxGeometry relative="1" as="geometry" />
        </mxCell>
        <mxCell id="tL8S8vgxzw9MluHzjDjj-25" value="&lt;font style=&quot;font-size: 20px&quot;&gt;Using pyodbc&lt;/font&gt;" style="text;html=1;strokeColor=none;fillColor=none;align=center;verticalAlign=middle;whiteSpace=wrap;rounded=0;" parent="WIyWlLk6GJQsqaUBKTNV-1" vertex="1">
          <mxGeometry x="420" y="513" width="90" height="90" as="geometry" />
        </mxCell>
        <mxCell id="tL8S8vgxzw9MluHzjDjj-89" style="edgeStyle=orthogonalEdgeStyle;rounded=0;orthogonalLoop=1;jettySize=auto;html=1;exitX=0.5;exitY=1;exitDx=0;exitDy=0;entryX=0.5;entryY=0;entryDx=0;entryDy=0;" parent="WIyWlLk6GJQsqaUBKTNV-1" source="tL8S8vgxzw9MluHzjDjj-30" target="tL8S8vgxzw9MluHzjDjj-82" edge="1">
          <mxGeometry relative="1" as="geometry" />
        </mxCell>
        <mxCell id="tL8S8vgxzw9MluHzjDjj-90" style="edgeStyle=orthogonalEdgeStyle;rounded=0;orthogonalLoop=1;jettySize=auto;html=1;exitX=0.5;exitY=1;exitDx=0;exitDy=0;entryX=0.5;entryY=0;entryDx=0;entryDy=0;" parent="WIyWlLk6GJQsqaUBKTNV-1" source="tL8S8vgxzw9MluHzjDjj-30" target="tL8S8vgxzw9MluHzjDjj-79" edge="1">
          <mxGeometry relative="1" as="geometry" />
        </mxCell>
        <mxCell id="tL8S8vgxzw9MluHzjDjj-30" value="people.py" style="swimlane;fontStyle=2;align=center;verticalAlign=top;childLayout=stackLayout;horizontal=1;startSize=26;horizontalStack=0;resizeParent=1;resizeLast=0;collapsible=1;marginBottom=0;rounded=0;shadow=0;strokeWidth=1;" parent="WIyWlLk6GJQsqaUBKTNV-1" vertex="1">
          <mxGeometry x="1840" y="380" width="330" height="160" as="geometry">
            <mxRectangle x="230" y="140" width="160" height="26" as="alternateBounds" />
          </mxGeometry>
        </mxCell>
        <mxCell id="tL8S8vgxzw9MluHzjDjj-31" value="first_name" style="text;align=left;verticalAlign=top;spacingLeft=4;spacingRight=4;overflow=hidden;rotatable=0;points=[[0,0.5],[1,0.5]];portConstraint=eastwest;" parent="tL8S8vgxzw9MluHzjDjj-30" vertex="1">
          <mxGeometry y="26" width="330" height="26" as="geometry" />
        </mxCell>
        <mxCell id="09slSfdneBY52mro02AB-4" value="second_name" style="text;align=left;verticalAlign=top;spacingLeft=4;spacingRight=4;overflow=hidden;rotatable=0;points=[[0,0.5],[1,0.5]];portConstraint=eastwest;" vertex="1" parent="tL8S8vgxzw9MluHzjDjj-30">
          <mxGeometry y="52" width="330" height="26" as="geometry" />
        </mxCell>
        <mxCell id="tL8S8vgxzw9MluHzjDjj-32" value="tax_number" style="text;align=left;verticalAlign=top;spacingLeft=4;spacingRight=4;overflow=hidden;rotatable=0;points=[[0,0.5],[1,0.5]];portConstraint=eastwest;rounded=0;shadow=0;html=0;" parent="tL8S8vgxzw9MluHzjDjj-30" vertex="1">
          <mxGeometry y="78" width="330" height="26" as="geometry" />
        </mxCell>
        <mxCell id="tL8S8vgxzw9MluHzjDjj-93" value="" style="line;html=1;strokeWidth=1;align=left;verticalAlign=middle;spacingTop=-1;spacingLeft=3;spacingRight=3;rotatable=0;labelPosition=right;points=[];portConstraint=eastwest;" parent="tL8S8vgxzw9MluHzjDjj-30" vertex="1">
          <mxGeometry y="104" width="330" height="8" as="geometry" />
        </mxCell>
        <mxCell id="tL8S8vgxzw9MluHzjDjj-94" value="__init__()" style="text;align=left;verticalAlign=top;spacingLeft=4;spacingRight=4;overflow=hidden;rotatable=0;points=[[0,0.5],[1,0.5]];portConstraint=eastwest;rounded=0;shadow=0;html=0;" parent="tL8S8vgxzw9MluHzjDjj-30" vertex="1">
          <mxGeometry y="112" width="330" height="24" as="geometry" />
        </mxCell>
        <mxCell id="09slSfdneBY52mro02AB-0" value="init_person_data(pid, first_name, last_name, tax_no)" style="text;align=left;verticalAlign=top;spacingLeft=4;spacingRight=4;overflow=hidden;rotatable=0;points=[[0,0.5],[1,0.5]];portConstraint=eastwest;rounded=0;shadow=0;html=0;" vertex="1" parent="tL8S8vgxzw9MluHzjDjj-30">
          <mxGeometry y="136" width="330" height="24" as="geometry" />
        </mxCell>
        <mxCell id="tL8S8vgxzw9MluHzjDjj-53" value="" style="group;" parent="WIyWlLk6GJQsqaUBKTNV-1" vertex="1" connectable="0">
          <mxGeometry x="-230" y="680" width="160" height="100" as="geometry" />
        </mxCell>
        <mxCell id="tL8S8vgxzw9MluHzjDjj-48" value="flight_order" style="swimlane;fontStyle=2;align=center;verticalAlign=top;childLayout=stackLayout;horizontal=1;startSize=26;horizontalStack=0;resizeParent=1;resizeLast=0;collapsible=1;marginBottom=0;rounded=0;shadow=0;strokeWidth=1;" parent="tL8S8vgxzw9MluHzjDjj-53" vertex="1">
          <mxGeometry width="160" height="100" as="geometry">
            <mxRectangle x="230" y="140" width="160" height="26" as="alternateBounds" />
          </mxGeometry>
        </mxCell>
        <mxCell id="tL8S8vgxzw9MluHzjDjj-49" value="passenger_id (FK)" style="text;align=left;verticalAlign=top;spacingLeft=4;spacingRight=4;overflow=hidden;rotatable=0;points=[[0,0.5],[1,0.5]];portConstraint=eastwest;" parent="tL8S8vgxzw9MluHzjDjj-53" vertex="1">
          <mxGeometry y="24" width="160" height="26" as="geometry" />
        </mxCell>
        <mxCell id="tL8S8vgxzw9MluHzjDjj-50" value="flight_id (FK)" style="text;align=left;verticalAlign=top;spacingLeft=4;spacingRight=4;overflow=hidden;rotatable=0;points=[[0,0.5],[1,0.5]];portConstraint=eastwest;" parent="tL8S8vgxzw9MluHzjDjj-53" vertex="1">
          <mxGeometry y="50" width="160" height="26" as="geometry" />
        </mxCell>
        <mxCell id="tL8S8vgxzw9MluHzjDjj-91" style="edgeStyle=orthogonalEdgeStyle;rounded=0;orthogonalLoop=1;jettySize=auto;html=1;exitX=0.5;exitY=1;exitDx=0;exitDy=0;entryX=0.5;entryY=0;entryDx=0;entryDy=0;" parent="WIyWlLk6GJQsqaUBKTNV-1" source="tL8S8vgxzw9MluHzjDjj-57" target="tL8S8vgxzw9MluHzjDjj-63" edge="1">
          <mxGeometry relative="1" as="geometry" />
        </mxCell>
        <mxCell id="tL8S8vgxzw9MluHzjDjj-92" style="edgeStyle=orthogonalEdgeStyle;rounded=0;orthogonalLoop=1;jettySize=auto;html=1;exitX=0.5;exitY=1;exitDx=0;exitDy=0;entryX=0.5;entryY=0;entryDx=0;entryDy=0;" parent="WIyWlLk6GJQsqaUBKTNV-1" source="tL8S8vgxzw9MluHzjDjj-57" target="tL8S8vgxzw9MluHzjDjj-68" edge="1">
          <mxGeometry relative="1" as="geometry" />
        </mxCell>
        <mxCell id="tL8S8vgxzw9MluHzjDjj-57" value="aircraft.py" style="swimlane;fontStyle=2;align=center;verticalAlign=top;childLayout=stackLayout;horizontal=1;startSize=26;horizontalStack=0;resizeParent=1;resizeLast=0;collapsible=1;marginBottom=0;rounded=0;shadow=0;strokeWidth=1;" parent="WIyWlLk6GJQsqaUBKTNV-1" vertex="1">
          <mxGeometry x="1489" y="401" width="200" height="212" as="geometry">
            <mxRectangle x="230" y="140" width="160" height="26" as="alternateBounds" />
          </mxGeometry>
        </mxCell>
        <mxCell id="tL8S8vgxzw9MluHzjDjj-58" value="aircraft_id" style="text;align=left;verticalAlign=top;spacingLeft=4;spacingRight=4;overflow=hidden;rotatable=0;points=[[0,0.5],[1,0.5]];portConstraint=eastwest;" parent="tL8S8vgxzw9MluHzjDjj-57" vertex="1">
          <mxGeometry y="26" width="200" height="26" as="geometry" />
        </mxCell>
        <mxCell id="tL8S8vgxzw9MluHzjDjj-61" value="bool flight" style="text;align=left;verticalAlign=top;spacingLeft=4;spacingRight=4;overflow=hidden;rotatable=0;points=[[0,0.5],[1,0.5]];portConstraint=eastwest;" parent="tL8S8vgxzw9MluHzjDjj-57" vertex="1">
          <mxGeometry y="52" width="200" height="26" as="geometry" />
        </mxCell>
        <mxCell id="tL8S8vgxzw9MluHzjDjj-62" value="flight_capacity" style="text;align=left;verticalAlign=top;spacingLeft=4;spacingRight=4;overflow=hidden;rotatable=0;points=[[0,0.5],[1,0.5]];portConstraint=eastwest;" parent="tL8S8vgxzw9MluHzjDjj-57" vertex="1">
          <mxGeometry y="78" width="200" height="26" as="geometry" />
        </mxCell>
        <mxCell id="tL8S8vgxzw9MluHzjDjj-60" value="" style="line;html=1;strokeWidth=1;align=left;verticalAlign=middle;spacingTop=-1;spacingLeft=3;spacingRight=3;rotatable=0;labelPosition=right;points=[];portConstraint=eastwest;" parent="tL8S8vgxzw9MluHzjDjj-57" vertex="1">
          <mxGeometry y="104" width="200" height="6" as="geometry" />
        </mxCell>
        <mxCell id="tL8S8vgxzw9MluHzjDjj-98" value="__init__(aircraft_id, flight_capacity)" style="text;align=left;verticalAlign=top;spacingLeft=4;spacingRight=4;overflow=hidden;rotatable=0;points=[[0,0.5],[1,0.5]];portConstraint=eastwest;rounded=0;shadow=0;html=0;" parent="tL8S8vgxzw9MluHzjDjj-57" vertex="1">
          <mxGeometry y="110" width="200" height="26" as="geometry" />
        </mxCell>
        <mxCell id="tL8S8vgxzw9MluHzjDjj-85" value="fly" style="text;align=left;verticalAlign=top;spacingLeft=4;spacingRight=4;overflow=hidden;rotatable=0;points=[[0,0.5],[1,0.5]];portConstraint=eastwest;" parent="tL8S8vgxzw9MluHzjDjj-57" vertex="1">
          <mxGeometry y="136" width="200" height="26" as="geometry" />
        </mxCell>
        <mxCell id="tL8S8vgxzw9MluHzjDjj-86" value="land" style="text;align=left;verticalAlign=top;spacingLeft=4;spacingRight=4;overflow=hidden;rotatable=0;points=[[0,0.5],[1,0.5]];portConstraint=eastwest;" parent="tL8S8vgxzw9MluHzjDjj-57" vertex="1">
          <mxGeometry y="162" width="200" height="24" as="geometry" />
        </mxCell>
        <mxCell id="tL8S8vgxzw9MluHzjDjj-87" value="fuel_up" style="text;align=left;verticalAlign=top;spacingLeft=4;spacingRight=4;overflow=hidden;rotatable=0;points=[[0,0.5],[1,0.5]];portConstraint=eastwest;" parent="tL8S8vgxzw9MluHzjDjj-57" vertex="1">
          <mxGeometry y="186" width="200" height="26" as="geometry" />
        </mxCell>
        <mxCell id="tL8S8vgxzw9MluHzjDjj-63" value="plane.py" style="swimlane;fontStyle=2;align=center;verticalAlign=top;childLayout=stackLayout;horizontal=1;startSize=26;horizontalStack=0;resizeParent=1;resizeLast=0;collapsible=1;marginBottom=0;rounded=0;shadow=0;strokeWidth=1;" parent="WIyWlLk6GJQsqaUBKTNV-1" vertex="1">
          <mxGeometry x="1329" y="721" width="220" height="84" as="geometry">
            <mxRectangle x="230" y="140" width="160" height="26" as="alternateBounds" />
          </mxGeometry>
        </mxCell>
        <mxCell id="tL8S8vgxzw9MluHzjDjj-88" value="plane_model" style="text;align=left;verticalAlign=top;spacingLeft=4;spacingRight=4;overflow=hidden;rotatable=0;points=[[0,0.5],[1,0.5]];portConstraint=eastwest;" parent="tL8S8vgxzw9MluHzjDjj-63" vertex="1">
          <mxGeometry y="26" width="220" height="26" as="geometry" />
        </mxCell>
        <mxCell id="tL8S8vgxzw9MluHzjDjj-67" value="" style="line;html=1;strokeWidth=1;align=left;verticalAlign=middle;spacingTop=-1;spacingLeft=3;spacingRight=3;rotatable=0;labelPosition=right;points=[];portConstraint=eastwest;" parent="tL8S8vgxzw9MluHzjDjj-63" vertex="1">
          <mxGeometry y="52" width="220" height="6" as="geometry" />
        </mxCell>
        <mxCell id="tL8S8vgxzw9MluHzjDjj-99" value="__init__(aircraft_id, flight_capacity)" style="text;align=left;verticalAlign=top;spacingLeft=4;spacingRight=4;overflow=hidden;rotatable=0;points=[[0,0.5],[1,0.5]];portConstraint=eastwest;rounded=0;shadow=0;html=0;" parent="tL8S8vgxzw9MluHzjDjj-63" vertex="1">
          <mxGeometry y="58" width="220" height="26" as="geometry" />
        </mxCell>
        <mxCell id="tL8S8vgxzw9MluHzjDjj-68" value="helicopter.py" style="swimlane;fontStyle=2;align=center;verticalAlign=top;childLayout=stackLayout;horizontal=1;startSize=26;horizontalStack=0;resizeParent=1;resizeLast=0;collapsible=1;marginBottom=0;rounded=0;shadow=0;strokeWidth=1;" parent="WIyWlLk6GJQsqaUBKTNV-1" vertex="1">
          <mxGeometry x="1589" y="721" width="210" height="80" as="geometry">
            <mxRectangle x="230" y="140" width="160" height="26" as="alternateBounds" />
          </mxGeometry>
        </mxCell>
        <mxCell id="tL8S8vgxzw9MluHzjDjj-69" value="" style="line;html=1;strokeWidth=1;align=left;verticalAlign=middle;spacingTop=-1;spacingLeft=3;spacingRight=3;rotatable=0;labelPosition=right;points=[];portConstraint=eastwest;" parent="tL8S8vgxzw9MluHzjDjj-68" vertex="1">
          <mxGeometry y="26" width="210" height="6" as="geometry" />
        </mxCell>
        <mxCell id="tL8S8vgxzw9MluHzjDjj-100" value="__init__(aircraft_id, flight_capacity)" style="text;align=left;verticalAlign=top;spacingLeft=4;spacingRight=4;overflow=hidden;rotatable=0;points=[[0,0.5],[1,0.5]];portConstraint=eastwest;rounded=0;shadow=0;html=0;" parent="tL8S8vgxzw9MluHzjDjj-68" vertex="1">
          <mxGeometry y="32" width="210" height="26" as="geometry" />
        </mxCell>
        <mxCell id="tL8S8vgxzw9MluHzjDjj-79" value="passenger.py" style="swimlane;fontStyle=2;align=center;verticalAlign=top;childLayout=stackLayout;horizontal=1;startSize=26;horizontalStack=0;resizeParent=1;resizeLast=0;collapsible=1;marginBottom=0;rounded=0;shadow=0;strokeWidth=1;" parent="WIyWlLk6GJQsqaUBKTNV-1" vertex="1">
          <mxGeometry x="1900" y="601" width="360" height="118" as="geometry">
            <mxRectangle x="230" y="140" width="160" height="26" as="alternateBounds" />
          </mxGeometry>
        </mxCell>
        <mxCell id="tL8S8vgxzw9MluHzjDjj-80" value="passport_number" style="text;align=left;verticalAlign=top;spacingLeft=4;spacingRight=4;overflow=hidden;rotatable=0;points=[[0,0.5],[1,0.5]];portConstraint=eastwest;" parent="tL8S8vgxzw9MluHzjDjj-79" vertex="1">
          <mxGeometry y="26" width="360" height="34" as="geometry" />
        </mxCell>
        <mxCell id="tL8S8vgxzw9MluHzjDjj-96" value="" style="line;html=1;strokeWidth=1;align=left;verticalAlign=middle;spacingTop=-1;spacingLeft=3;spacingRight=3;rotatable=0;labelPosition=right;points=[];portConstraint=eastwest;" parent="tL8S8vgxzw9MluHzjDjj-79" vertex="1">
          <mxGeometry y="60" width="360" height="8" as="geometry" />
        </mxCell>
        <mxCell id="tL8S8vgxzw9MluHzjDjj-95" value="__init__()" style="text;align=left;verticalAlign=top;spacingLeft=4;spacingRight=4;overflow=hidden;rotatable=0;points=[[0,0.5],[1,0.5]];portConstraint=eastwest;rounded=0;shadow=0;html=0;" parent="tL8S8vgxzw9MluHzjDjj-79" vertex="1">
          <mxGeometry y="68" width="360" height="26" as="geometry" />
        </mxCell>
        <mxCell id="09slSfdneBY52mro02AB-1" value="make_from_db(pid, first_name, last_name, tax_no, passport_no)" style="text;align=left;verticalAlign=top;spacingLeft=4;spacingRight=4;overflow=hidden;rotatable=0;points=[[0,0.5],[1,0.5]];portConstraint=eastwest;rounded=0;shadow=0;html=0;" vertex="1" parent="tL8S8vgxzw9MluHzjDjj-79">
          <mxGeometry y="94" width="360" height="24" as="geometry" />
        </mxCell>
        <mxCell id="tL8S8vgxzw9MluHzjDjj-82" value="staff.py" style="swimlane;fontStyle=2;align=center;verticalAlign=top;childLayout=stackLayout;horizontal=1;startSize=26;horizontalStack=0;resizeParent=1;resizeLast=0;collapsible=1;marginBottom=0;rounded=0;shadow=0;strokeWidth=1;" parent="WIyWlLk6GJQsqaUBKTNV-1" vertex="1">
          <mxGeometry x="1723" y="601" width="160" height="60" as="geometry">
            <mxRectangle x="230" y="140" width="160" height="26" as="alternateBounds" />
          </mxGeometry>
        </mxCell>
        <mxCell id="tL8S8vgxzw9MluHzjDjj-97" value="__init__()" style="text;align=left;verticalAlign=top;spacingLeft=4;spacingRight=4;overflow=hidden;rotatable=0;points=[[0,0.5],[1,0.5]];portConstraint=eastwest;rounded=0;shadow=0;html=0;" parent="tL8S8vgxzw9MluHzjDjj-82" vertex="1">
          <mxGeometry y="26" width="160" height="26" as="geometry" />
        </mxCell>
        <mxCell id="tL8S8vgxzw9MluHzjDjj-101" value="staff" style="swimlane;fontStyle=2;align=center;verticalAlign=top;childLayout=stackLayout;horizontal=1;startSize=26;horizontalStack=0;resizeParent=1;resizeLast=0;collapsible=1;marginBottom=0;rounded=0;shadow=0;strokeWidth=1;" parent="WIyWlLk6GJQsqaUBKTNV-1" vertex="1">
          <mxGeometry x="10" y="870" width="160" height="130" as="geometry">
            <mxRectangle x="230" y="140" width="160" height="26" as="alternateBounds" />
          </mxGeometry>
        </mxCell>
        <mxCell id="tL8S8vgxzw9MluHzjDjj-102" value="staff_id" style="text;align=left;verticalAlign=top;spacingLeft=4;spacingRight=4;overflow=hidden;rotatable=0;points=[[0,0.5],[1,0.5]];portConstraint=eastwest;" parent="tL8S8vgxzw9MluHzjDjj-101" vertex="1">
          <mxGeometry y="26" width="160" height="26" as="geometry" />
        </mxCell>
        <mxCell id="tL8S8vgxzw9MluHzjDjj-103" value="first_name" style="text;align=left;verticalAlign=top;spacingLeft=4;spacingRight=4;overflow=hidden;rotatable=0;points=[[0,0.5],[1,0.5]];portConstraint=eastwest;" parent="tL8S8vgxzw9MluHzjDjj-101" vertex="1">
          <mxGeometry y="52" width="160" height="26" as="geometry" />
        </mxCell>
        <mxCell id="09slSfdneBY52mro02AB-3" value="second_name" style="text;align=left;verticalAlign=top;spacingLeft=4;spacingRight=4;overflow=hidden;rotatable=0;points=[[0,0.5],[1,0.5]];portConstraint=eastwest;" vertex="1" parent="tL8S8vgxzw9MluHzjDjj-101">
          <mxGeometry y="78" width="160" height="26" as="geometry" />
        </mxCell>
        <mxCell id="tL8S8vgxzw9MluHzjDjj-104" value="tax_number" style="text;align=left;verticalAlign=top;spacingLeft=4;spacingRight=4;overflow=hidden;rotatable=0;points=[[0,0.5],[1,0.5]];portConstraint=eastwest;rounded=0;shadow=0;html=0;" parent="tL8S8vgxzw9MluHzjDjj-101" vertex="1">
          <mxGeometry y="104" width="160" height="26" as="geometry" />
        </mxCell>
        <mxCell id="tL8S8vgxzw9MluHzjDjj-105" value="" style="group" parent="WIyWlLk6GJQsqaUBKTNV-1" vertex="1" connectable="0">
          <mxGeometry x="-25" y="437" width="160" height="100" as="geometry" />
        </mxCell>
        <mxCell id="tL8S8vgxzw9MluHzjDjj-70" value="" style="group" parent="tL8S8vgxzw9MluHzjDjj-105" vertex="1" connectable="0">
          <mxGeometry width="160" height="100" as="geometry" />
        </mxCell>
        <mxCell id="tL8S8vgxzw9MluHzjDjj-71" value="aircraft" style="swimlane;fontStyle=2;align=center;verticalAlign=top;childLayout=stackLayout;horizontal=1;startSize=26;horizontalStack=0;resizeParent=1;resizeLast=0;collapsible=1;marginBottom=0;rounded=0;shadow=0;strokeWidth=1;" parent="tL8S8vgxzw9MluHzjDjj-70" vertex="1">
          <mxGeometry width="160" height="100" as="geometry">
            <mxRectangle x="230" y="140" width="160" height="26" as="alternateBounds" />
          </mxGeometry>
        </mxCell>
        <mxCell id="tL8S8vgxzw9MluHzjDjj-72" value="aircraft_id" style="text;align=left;verticalAlign=top;spacingLeft=4;spacingRight=4;overflow=hidden;rotatable=0;points=[[0,0.5],[1,0.5]];portConstraint=eastwest;" parent="tL8S8vgxzw9MluHzjDjj-70" vertex="1">
          <mxGeometry y="24" width="160" height="26" as="geometry" />
        </mxCell>
        <mxCell id="tL8S8vgxzw9MluHzjDjj-73" value="bool flight" style="text;align=left;verticalAlign=top;spacingLeft=4;spacingRight=4;overflow=hidden;rotatable=0;points=[[0,0.5],[1,0.5]];portConstraint=eastwest;" parent="tL8S8vgxzw9MluHzjDjj-70" vertex="1">
          <mxGeometry y="50" width="160" height="26" as="geometry" />
        </mxCell>
        <mxCell id="tL8S8vgxzw9MluHzjDjj-74" value="flight_capacity" style="text;align=left;verticalAlign=top;spacingLeft=4;spacingRight=4;overflow=hidden;rotatable=0;points=[[0,0.5],[1,0.5]];portConstraint=eastwest;" parent="tL8S8vgxzw9MluHzjDjj-105" vertex="1">
          <mxGeometry y="74" width="160" height="26" as="geometry" />
        </mxCell>
        <mxCell id="tL8S8vgxzw9MluHzjDjj-107" value="" style="group" parent="WIyWlLk6GJQsqaUBKTNV-1" vertex="1" connectable="0">
          <mxGeometry x="-230" y="852" width="160" height="158" as="geometry" />
        </mxCell>
        <mxCell id="zkfFHV4jXpPFQw0GAbJ--0" value="passengers" style="swimlane;fontStyle=2;align=center;verticalAlign=top;childLayout=stackLayout;horizontal=1;startSize=26;horizontalStack=0;resizeParent=1;resizeLast=0;collapsible=1;marginBottom=0;rounded=0;shadow=0;strokeWidth=1;" parent="tL8S8vgxzw9MluHzjDjj-107" vertex="1">
          <mxGeometry width="160" height="158" as="geometry">
            <mxRectangle x="230" y="140" width="160" height="26" as="alternateBounds" />
          </mxGeometry>
        </mxCell>
        <mxCell id="zkfFHV4jXpPFQw0GAbJ--1" value="passenger_id (PK)" style="text;align=left;verticalAlign=top;spacingLeft=4;spacingRight=4;overflow=hidden;rotatable=0;points=[[0,0.5],[1,0.5]];portConstraint=eastwest;" parent="zkfFHV4jXpPFQw0GAbJ--0" vertex="1">
          <mxGeometry y="26" width="160" height="24" as="geometry" />
        </mxCell>
        <mxCell id="tL8S8vgxzw9MluHzjDjj-41" value="first_name" style="text;align=left;verticalAlign=top;spacingLeft=4;spacingRight=4;overflow=hidden;rotatable=0;points=[[0,0.5],[1,0.5]];portConstraint=eastwest;" parent="zkfFHV4jXpPFQw0GAbJ--0" vertex="1">
          <mxGeometry y="50" width="160" height="22.4" as="geometry" />
        </mxCell>
        <mxCell id="09slSfdneBY52mro02AB-2" value="second_name" style="text;align=left;verticalAlign=top;spacingLeft=4;spacingRight=4;overflow=hidden;rotatable=0;points=[[0,0.5],[1,0.5]];portConstraint=eastwest;" vertex="1" parent="zkfFHV4jXpPFQw0GAbJ--0">
          <mxGeometry y="72.4" width="160" height="22.4" as="geometry" />
        </mxCell>
        <mxCell id="zkfFHV4jXpPFQw0GAbJ--2" value="tax_number" style="text;align=left;verticalAlign=top;spacingLeft=4;spacingRight=4;overflow=hidden;rotatable=0;points=[[0,0.5],[1,0.5]];portConstraint=eastwest;rounded=0;shadow=0;html=0;" parent="zkfFHV4jXpPFQw0GAbJ--0" vertex="1">
          <mxGeometry y="94.80000000000001" width="160" height="20.8" as="geometry" />
        </mxCell>
        <mxCell id="tL8S8vgxzw9MluHzjDjj-106" value="passport_number" style="text;align=left;verticalAlign=top;spacingLeft=4;spacingRight=4;overflow=hidden;rotatable=0;points=[[0,0.5],[1,0.5]];portConstraint=eastwest;rounded=0;shadow=0;html=0;" parent="zkfFHV4jXpPFQw0GAbJ--0" vertex="1">
          <mxGeometry y="115.60000000000001" width="160" height="28.46" as="geometry" />
        </mxCell>
        <mxCell id="tL8S8vgxzw9MluHzjDjj-108" value="" style="group" parent="WIyWlLk6GJQsqaUBKTNV-1" vertex="1" connectable="0">
          <mxGeometry x="-230" y="390" width="160" height="196" as="geometry" />
        </mxCell>
        <mxCell id="tL8S8vgxzw9MluHzjDjj-27" value="flight_trip_table" style="swimlane;fontStyle=2;align=center;verticalAlign=top;childLayout=stackLayout;horizontal=1;startSize=26;horizontalStack=0;resizeParent=1;resizeLast=0;collapsible=1;marginBottom=0;rounded=0;shadow=0;strokeWidth=1;" parent="tL8S8vgxzw9MluHzjDjj-108" vertex="1">
          <mxGeometry width="160" height="196" as="geometry">
            <mxRectangle x="230" y="140" width="160" height="26" as="alternateBounds" />
          </mxGeometry>
        </mxCell>
        <mxCell id="tL8S8vgxzw9MluHzjDjj-44" value="ticket_price" style="text;align=left;verticalAlign=top;spacingLeft=4;spacingRight=4;overflow=hidden;rotatable=0;points=[[0,0.5],[1,0.5]];portConstraint=eastwest;" parent="tL8S8vgxzw9MluHzjDjj-108" vertex="1">
          <mxGeometry y="58" width="160" height="26" as="geometry" />
        </mxCell>
        <mxCell id="tL8S8vgxzw9MluHzjDjj-45" value="aircraft_id" style="text;align=left;verticalAlign=top;spacingLeft=4;spacingRight=4;overflow=hidden;rotatable=0;points=[[0,0.5],[1,0.5]];portConstraint=eastwest;" parent="tL8S8vgxzw9MluHzjDjj-108" vertex="1">
          <mxGeometry y="84" width="160" height="26" as="geometry" />
        </mxCell>
        <mxCell id="tL8S8vgxzw9MluHzjDjj-46" value="destination" style="text;align=left;verticalAlign=top;spacingLeft=4;spacingRight=4;overflow=hidden;rotatable=0;points=[[0,0.5],[1,0.5]];portConstraint=eastwest;" parent="tL8S8vgxzw9MluHzjDjj-108" vertex="1">
          <mxGeometry y="110" width="160" height="26" as="geometry" />
        </mxCell>
        <mxCell id="tL8S8vgxzw9MluHzjDjj-47" value="flight_id (PK)" style="text;align=left;verticalAlign=top;spacingLeft=4;spacingRight=4;overflow=hidden;rotatable=0;points=[[0,0.5],[1,0.5]];portConstraint=eastwest;" parent="tL8S8vgxzw9MluHzjDjj-108" vertex="1">
          <mxGeometry y="32" width="160" height="26" as="geometry" />
        </mxCell>
        <mxCell id="tL8S8vgxzw9MluHzjDjj-52" value="duration" style="text;align=left;verticalAlign=top;spacingLeft=4;spacingRight=4;overflow=hidden;rotatable=0;points=[[0,0.5],[1,0.5]];portConstraint=eastwest;" parent="tL8S8vgxzw9MluHzjDjj-108" vertex="1">
          <mxGeometry y="136" width="160" height="26" as="geometry" />
        </mxCell>
        <mxCell id="tL8S8vgxzw9MluHzjDjj-54" value="origin" style="text;align=left;verticalAlign=top;spacingLeft=4;spacingRight=4;overflow=hidden;rotatable=0;points=[[0,0.5],[1,0.5]];portConstraint=eastwest;" parent="tL8S8vgxzw9MluHzjDjj-108" vertex="1">
          <mxGeometry y="162" width="160" height="26" as="geometry" />
        </mxCell>
        <mxCell id="32GKXj04X5cxDp7pSgDI-6" style="edgeStyle=orthogonalEdgeStyle;rounded=0;orthogonalLoop=1;jettySize=auto;html=1;exitX=0;exitY=0.5;exitDx=0;exitDy=0;entryX=1;entryY=0.5;entryDx=0;entryDy=0;startArrow=none;startFill=0;endArrow=classic;endFill=1;endSize=6;targetPerimeterSpacing=0;strokeWidth=2;" parent="WIyWlLk6GJQsqaUBKTNV-1" source="tL8S8vgxzw9MluHzjDjj-109" target="tL8S8vgxzw9MluHzjDjj-15" edge="1">
          <mxGeometry relative="1" as="geometry" />
        </mxCell>
        <mxCell id="32GKXj04X5cxDp7pSgDI-7" style="edgeStyle=orthogonalEdgeStyle;rounded=0;orthogonalLoop=1;jettySize=auto;html=1;exitX=1;exitY=0.5;exitDx=0;exitDy=0;entryX=0;entryY=0.5;entryDx=0;entryDy=0;startArrow=none;startFill=0;endArrow=classic;endFill=1;endSize=6;targetPerimeterSpacing=0;strokeWidth=2;" parent="WIyWlLk6GJQsqaUBKTNV-1" source="tL8S8vgxzw9MluHzjDjj-109" target="tL8S8vgxzw9MluHzjDjj-120" edge="1">
          <mxGeometry relative="1" as="geometry" />
        </mxCell>
        <mxCell id="tL8S8vgxzw9MluHzjDjj-109" value="run.py" style="swimlane;fontStyle=2;align=center;verticalAlign=top;childLayout=stackLayout;horizontal=1;startSize=26;horizontalStack=0;resizeParent=1;resizeLast=0;collapsible=1;marginBottom=0;rounded=0;shadow=0;strokeWidth=1;" parent="WIyWlLk6GJQsqaUBKTNV-1" vertex="1">
          <mxGeometry x="880" y="602" width="160" height="52" as="geometry">
            <mxRectangle x="230" y="140" width="160" height="26" as="alternateBounds" />
          </mxGeometry>
        </mxCell>
        <mxCell id="tL8S8vgxzw9MluHzjDjj-116" value="" style="line;html=1;strokeWidth=1;align=left;verticalAlign=middle;spacingTop=-1;spacingLeft=3;spacingRight=3;rotatable=0;labelPosition=right;points=[];portConstraint=eastwest;" parent="tL8S8vgxzw9MluHzjDjj-109" vertex="1">
          <mxGeometry y="26" width="160" height="18" as="geometry" />
        </mxCell>
        <mxCell id="32GKXj04X5cxDp7pSgDI-8" style="edgeStyle=orthogonalEdgeStyle;rounded=0;orthogonalLoop=1;jettySize=auto;html=1;exitX=0.5;exitY=1;exitDx=0;exitDy=0;startArrow=none;startFill=0;endArrow=classic;endFill=1;endSize=6;targetPerimeterSpacing=0;strokeWidth=2;" parent="WIyWlLk6GJQsqaUBKTNV-1" source="tL8S8vgxzw9MluHzjDjj-121" target="tL8S8vgxzw9MluHzjDjj-120" edge="1">
          <mxGeometry relative="1" as="geometry" />
        </mxCell>
        <mxCell id="tL8S8vgxzw9MluHzjDjj-121" value="test_plane_project.py" style="swimlane;fontStyle=2;align=center;verticalAlign=top;childLayout=stackLayout;horizontal=1;startSize=26;horizontalStack=0;resizeParent=1;resizeLast=0;collapsible=1;marginBottom=0;rounded=0;shadow=0;strokeWidth=1;" parent="WIyWlLk6GJQsqaUBKTNV-1" vertex="1">
          <mxGeometry x="1800" y="220" width="160" height="60" as="geometry">
            <mxRectangle x="230" y="140" width="160" height="26" as="alternateBounds" />
          </mxGeometry>
        </mxCell>
        <mxCell id="tL8S8vgxzw9MluHzjDjj-128" value="" style="line;html=1;strokeWidth=1;align=left;verticalAlign=middle;spacingTop=-1;spacingLeft=3;spacingRight=3;rotatable=0;labelPosition=right;points=[];portConstraint=eastwest;" parent="tL8S8vgxzw9MluHzjDjj-121" vertex="1">
          <mxGeometry y="26" width="160" height="18" as="geometry" />
        </mxCell>
        <mxCell id="32GKXj04X5cxDp7pSgDI-0" style="edgeStyle=orthogonalEdgeStyle;rounded=0;orthogonalLoop=1;jettySize=auto;html=1;exitX=0.5;exitY=1;exitDx=0;exitDy=0;entryX=0.5;entryY=0;entryDx=0;entryDy=0;endArrow=ERmany;endFill=0;strokeWidth=2;targetPerimeterSpacing=0;endSize=9;startArrow=ERone;startFill=0;" parent="WIyWlLk6GJQsqaUBKTNV-1" source="tL8S8vgxzw9MluHzjDjj-27" target="tL8S8vgxzw9MluHzjDjj-48" edge="1">
          <mxGeometry relative="1" as="geometry" />
        </mxCell>
        <mxCell id="32GKXj04X5cxDp7pSgDI-1" style="edgeStyle=orthogonalEdgeStyle;rounded=0;orthogonalLoop=1;jettySize=auto;html=1;exitX=0.5;exitY=0;exitDx=0;exitDy=0;entryX=0.5;entryY=1;entryDx=0;entryDy=0;endArrow=ERmany;endFill=0;strokeWidth=2;endSize=9;startArrow=ERone;startFill=0;" parent="WIyWlLk6GJQsqaUBKTNV-1" source="zkfFHV4jXpPFQw0GAbJ--0" target="tL8S8vgxzw9MluHzjDjj-48" edge="1">
          <mxGeometry relative="1" as="geometry" />
        </mxCell>
        <mxCell id="32GKXj04X5cxDp7pSgDI-2" style="edgeStyle=orthogonalEdgeStyle;rounded=0;orthogonalLoop=1;jettySize=auto;html=1;exitX=1;exitY=0.5;exitDx=0;exitDy=0;endArrow=ERone;endFill=0;endSize=6;targetPerimeterSpacing=0;strokeWidth=2;startArrow=ERone;startFill=0;" parent="WIyWlLk6GJQsqaUBKTNV-1" source="tL8S8vgxzw9MluHzjDjj-45" target="tL8S8vgxzw9MluHzjDjj-71" edge="1">
          <mxGeometry relative="1" as="geometry" />
        </mxCell>
        <mxCell id="32GKXj04X5cxDp7pSgDI-5" value="Running file" style="text;html=1;strokeColor=none;fillColor=none;align=center;verticalAlign=middle;whiteSpace=wrap;rounded=0;" parent="WIyWlLk6GJQsqaUBKTNV-1" vertex="1">
          <mxGeometry x="910" y="570" width="100" height="20" as="geometry" />
        </mxCell>
        <mxCell id="09slSfdneBY52mro02AB-7" style="edgeStyle=orthogonalEdgeStyle;rounded=0;orthogonalLoop=1;jettySize=auto;html=1;exitX=0.5;exitY=0;exitDx=0;exitDy=0;entryX=0.5;entryY=1;entryDx=0;entryDy=0;endArrow=none;endFill=0;" edge="1" parent="WIyWlLk6GJQsqaUBKTNV-1" source="09slSfdneBY52mro02AB-5" target="tL8S8vgxzw9MluHzjDjj-109">
          <mxGeometry relative="1" as="geometry" />
        </mxCell>
        <mxCell id="09slSfdneBY52mro02AB-5" value="menu.py&#xa;" style="swimlane;fontStyle=2;align=center;verticalAlign=top;childLayout=stackLayout;horizontal=1;startSize=26;horizontalStack=0;resizeParent=1;resizeLast=0;collapsible=1;marginBottom=0;rounded=0;shadow=0;strokeWidth=1;" vertex="1" parent="WIyWlLk6GJQsqaUBKTNV-1">
          <mxGeometry x="880" y="827" width="160" height="52" as="geometry">
            <mxRectangle x="230" y="140" width="160" height="26" as="alternateBounds" />
          </mxGeometry>
        </mxCell>
        <mxCell id="09slSfdneBY52mro02AB-6" value="" style="line;html=1;strokeWidth=1;align=left;verticalAlign=middle;spacingTop=-1;spacingLeft=3;spacingRight=3;rotatable=0;labelPosition=right;points=[];portConstraint=eastwest;" vertex="1" parent="09slSfdneBY52mro02AB-5">
          <mxGeometry y="26" width="160" height="18" as="geometry" />
        </mxCell>
        <mxCell id="09slSfdneBY52mro02AB-8" value="Import menu.py" style="text;html=1;align=center;verticalAlign=middle;resizable=0;points=[];autosize=1;" vertex="1" parent="WIyWlLk6GJQsqaUBKTNV-1">
          <mxGeometry x="960" y="730" width="100" height="20" as="geometry" />
        </mxCell>
      </root>
    </mxGraphModel>
  </diagram>
</mxfile>
